<svg width="22" height="23" viewBox="0 0 22 23" fill="none" xmlns="http://www.w3.org/2000/svg">
<path d="M2.44444 22.5C1.77222 22.5 1.19656 22.2609 0.717444 21.7826C0.239148 21.3034 0 20.7278 0 20.0556V2.94444C0 2.27222 0.239148 1.69656 0.717444 1.21744C1.19656 0.739148 1.77222 0.5 2.44444 0.5H19.5556C20.2278 0.5 20.8034 0.739148 21.2826 1.21744C21.7609 1.69656 22 2.27222 22 2.94444V20.0556C22 20.7278 21.7609 21.3034 21.2826 21.7826C20.8034 22.2609 20.2278 22.5 19.5556 22.5H2.44444ZM2.44444 20.0556H19.5556V2.94444H2.44444V20.0556ZM9.28889 16.1139C9.45185 16.1139 9.60463 16.0886 9.74722 16.0381C9.88982 15.9868 10.0222 15.9 10.1444 15.7778L17.0806 8.84167C17.3046 8.61759 17.4167 8.34259 17.4167 8.01667C17.4167 7.69074 17.2944 7.40556 17.05 7.16111C16.8259 6.93704 16.5407 6.825 16.1944 6.825C15.8481 6.825 15.563 6.93704 15.3389 7.16111L9.28889 13.2111L6.63056 10.5528C6.40648 10.3287 6.13148 10.2167 5.80556 10.2167C5.47963 10.2167 5.19444 10.3389 4.95 10.5833C4.72593 10.8074 4.61389 11.0926 4.61389 11.4389C4.61389 11.7852 4.72593 12.0704 4.95 12.2944L8.43333 15.7778C8.55556 15.9 8.68796 15.9868 8.83056 16.0381C8.97315 16.0886 9.12593 16.1139 9.28889 16.1139Z" fill="#75B0F6"/>
</svg>
