<svg width="24" height="23" viewBox="0 0 24 23" fill="none" xmlns="http://www.w3.org/2000/svg">
<path d="M2.87804 22.8333C2.26991 22.8333 1.74913 22.6169 1.3157 22.184C0.883003 21.7518 0.666656 21.232 0.666656 20.6246V5.16383C0.666656 4.55644 0.883003 4.03629 1.3157 3.60339C1.74913 3.17122 2.26991 2.95514 2.87804 2.95514H12.7463L10.5349 5.16383H2.87804V20.6246H18.3577V12.9495L20.5691 10.7408V20.6246C20.5691 21.232 20.3527 21.7518 19.9201 22.184C19.4866 22.6169 18.9658 22.8333 18.3577 22.8333H2.87804ZM15.2341 3.59014L16.8097 5.13622L9.51219 12.4249V13.9986H11.0602L18.3854 6.6823L19.961 8.22838L12 16.2073H7.3008V11.5138L15.2341 3.59014ZM19.961 8.22838L15.2341 3.59014L17.9984 0.829278C18.4406 0.387541 18.9706 0.166672 19.5883 0.166672C20.2053 0.166672 20.7257 0.387541 21.1496 0.829278L22.6975 2.40297C23.1214 2.8263 23.3333 3.34166 23.3333 3.94905C23.3333 4.55644 23.1214 5.0718 22.6975 5.49513L19.961 8.22838Z" fill="#F6C475"/>
</svg>
